<svg width="30" height="30" viewBox="0 0 30 30" fill="none" xmlns="http://www.w3.org/2000/svg">
<rect width="30" height="30" rx="15" fill="#030712"/>
<path d="M10 20.0488V6H13.3544V11.3163H13.423C13.5602 10.9962 13.7546 10.6875 14.0061 10.3902C14.2622 10.093 14.5869 9.85061 14.9802 9.66311C15.378 9.47104 15.8537 9.375 16.407 9.375C17.1387 9.375 17.8224 9.56707 18.4581 9.95122C19.0983 10.3354 19.6151 10.9276 20.0084 11.7279C20.4017 12.5282 20.5983 13.548 20.5983 14.7873C20.5983 15.9809 20.4085 16.9802 20.029 17.7851C19.654 18.5899 19.1463 19.1936 18.5061 19.596C17.8704 19.9985 17.1639 20.1997 16.3864 20.1997C15.8559 20.1997 15.3963 20.1128 15.0076 19.939C14.6189 19.7652 14.2919 19.5366 14.0267 19.253C13.766 18.9695 13.5648 18.6654 13.423 18.3407H13.3201V20.0488H10ZM13.2858 14.7805C13.2858 15.3476 13.3613 15.8415 13.5122 16.2622C13.6677 16.6829 13.8895 17.0099 14.1776 17.2431C14.4703 17.4718 14.8201 17.5861 15.2271 17.5861C15.6387 17.5861 15.9886 17.4718 16.2767 17.2431C16.5648 17.0099 16.782 16.6829 16.9284 16.2622C17.0793 15.8415 17.1547 15.3476 17.1547 14.7805C17.1547 14.2134 17.0793 13.7218 16.9284 13.3056C16.782 12.8895 16.5648 12.5671 16.2767 12.3384C15.9931 12.1098 15.6433 11.9954 15.2271 11.9954C14.8155 11.9954 14.4657 12.1075 14.1776 12.3316C13.8895 12.5556 13.6677 12.8758 13.5122 13.2919C13.3613 13.7081 13.2858 14.2043 13.2858 14.7805Z" fill="white"/>
<path d="M10 24V9.51219H13.3201V11.3163H13.423C13.5602 10.9962 13.7546 10.6875 14.0061 10.3902C14.2622 10.093 14.5869 9.85061 14.9802 9.66311C15.378 9.47104 15.8537 9.375 16.407 9.375C17.1387 9.375 17.8224 9.56707 18.4581 9.95122C19.0983 10.3354 19.6151 10.9276 20.0084 11.7279C20.4017 12.5282 20.5983 13.548 20.5983 14.7873C20.5983 15.9809 20.4085 16.9802 20.029 17.7851C19.654 18.5899 19.1463 19.1936 18.5061 19.596C17.8704 19.9985 17.1639 20.1997 16.3864 20.1997C15.8559 20.1997 15.3963 20.1128 15.0076 19.939C14.6189 19.7652 14.2919 19.5366 14.0267 19.253C13.766 18.9695 13.5648 18.6654 13.423 18.3407H13.3544V24H10ZM13.2858 14.7805C13.2858 15.3476 13.3613 15.8415 13.5122 16.2622C13.6677 16.6829 13.8895 17.0099 14.1776 17.2431C14.4703 17.4718 14.8201 17.5861 15.2271 17.5861C15.6387 17.5861 15.9886 17.4718 16.2767 17.2431C16.5648 17.0099 16.782 16.6829 16.9284 16.2622C17.0793 15.8415 17.1547 15.3476 17.1547 14.7805C17.1547 14.2134 17.0793 13.7218 16.9284 13.3056C16.782 12.8895 16.5648 12.5671 16.2767 12.3384C15.9931 12.1098 15.6433 11.9954 15.2271 11.9954C14.8155 11.9954 14.4657 12.1075 14.1776 12.3316C13.8895 12.5556 13.6677 12.8758 13.5122 13.2919C13.3613 13.7081 13.2858 14.2043 13.2858 14.7805Z" fill="white"/>
</svg>
