<svg width="24" height="24" viewBox="0 0 24 24" fill="none" xmlns="http://www.w3.org/2000/svg">
<path d="M7 17.0488V3H10.3544V8.31631H10.423C10.5602 7.99619 10.7546 7.6875 11.0061 7.39024C11.2622 7.09299 11.5869 6.85061 11.9802 6.66311C12.378 6.47104 12.8537 6.375 13.407 6.375C14.1387 6.375 14.8224 6.56707 15.4581 6.95122C16.0983 7.33537 16.6151 7.92759 17.0084 8.7279C17.4017 9.5282 17.5983 10.548 17.5983 11.7873C17.5983 12.9809 17.4085 13.9802 17.029 14.7851C16.654 15.5899 16.1463 16.1936 15.5061 16.596C14.8704 16.9985 14.1639 17.1997 13.3864 17.1997C12.8559 17.1997 12.3963 17.1128 12.0076 16.939C11.6189 16.7652 11.2919 16.5366 11.0267 16.253C10.766 15.9695 10.5648 15.6654 10.423 15.3407H10.3201V17.0488H7ZM10.2858 11.7805C10.2858 12.3476 10.3613 12.8415 10.5122 13.2622C10.6677 13.6829 10.8895 14.0099 11.1776 14.2431C11.4703 14.4718 11.8201 14.5861 12.2271 14.5861C12.6387 14.5861 12.9886 14.4718 13.2767 14.2431C13.5648 14.0099 13.782 13.6829 13.9284 13.2622C14.0793 12.8415 14.1547 12.3476 14.1547 11.7805C14.1547 11.2134 14.0793 10.7218 13.9284 10.3056C13.782 9.88948 13.5648 9.56707 13.2767 9.33841C12.9931 9.10976 12.6433 8.99543 12.2271 8.99543C11.8155 8.99543 11.4657 9.10747 11.1776 9.33155C10.8895 9.55564 10.6677 9.87576 10.5122 10.2919C10.3613 10.7081 10.2858 11.2043 10.2858 11.7805Z" fill="#030712"/>
<path d="M7 21V6.5122H10.3201V8.31631H10.423C10.5602 7.99619 10.7546 7.6875 11.0061 7.39024C11.2622 7.09299 11.5869 6.85061 11.9802 6.66311C12.378 6.47104 12.8537 6.375 13.407 6.375C14.1387 6.375 14.8224 6.56707 15.4581 6.95122C16.0983 7.33537 16.6151 7.92759 17.0084 8.7279C17.4017 9.5282 17.5983 10.548 17.5983 11.7873C17.5983 12.9809 17.4085 13.9802 17.029 14.7851C16.654 15.5899 16.1463 16.1936 15.5061 16.596C14.8704 16.9985 14.1639 17.1997 13.3864 17.1997C12.8559 17.1997 12.3963 17.1128 12.0076 16.939C11.6189 16.7652 11.2919 16.5366 11.0267 16.253C10.766 15.9695 10.5648 15.6654 10.423 15.3407H10.3544V21H7ZM10.2858 11.7805C10.2858 12.3476 10.3613 12.8415 10.5122 13.2622C10.6677 13.6829 10.8895 14.0099 11.1776 14.2431C11.4703 14.4718 11.8201 14.5861 12.2271 14.5861C12.6387 14.5861 12.9886 14.4718 13.2767 14.2431C13.5648 14.0099 13.782 13.6829 13.9284 13.2622C14.0793 12.8415 14.1547 12.3476 14.1547 11.7805C14.1547 11.2134 14.0793 10.7218 13.9284 10.3056C13.782 9.88948 13.5648 9.56707 13.2767 9.33841C12.9931 9.10976 12.6433 8.99543 12.2271 8.99543C11.8155 8.99543 11.4657 9.10747 11.1776 9.33155C10.8895 9.55564 10.6677 9.87576 10.5122 10.2919C10.3613 10.7081 10.2858 11.2043 10.2858 11.7805Z" fill="#030712"/>
</svg>
