<svg width="171" height="29" viewBox="0 0 171 29" fill="none" xmlns="http://www.w3.org/2000/svg">
<path d="M9.752 22.368C8.81333 22.368 8.01333 22.2187 7.352 21.92C6.70133 21.6107 6.17333 21.1787 5.768 20.624C5.37333 20.0693 5.09067 19.4187 4.92 18.672H3.752L4.808 15.536C4.84 16.2827 5 16.912 5.288 17.424C5.576 17.936 5.976 18.32 6.488 18.576C7 18.832 7.592 18.96 8.264 18.96C9.29867 18.96 10.0827 18.6613 10.616 18.064C11.1493 17.456 11.416 16.5493 11.416 15.344V12.8C11.416 11.6267 11.1493 10.7413 10.616 10.144C10.0827 9.54667 9.29867 9.248 8.264 9.248C7.656 9.248 7.112 9.36533 6.632 9.6C6.152 9.824 5.752 10.128 5.432 10.512C5.112 10.896 4.88267 11.3387 4.744 11.84L3.816 9.632H4.968C5.13867 8.94933 5.41067 8.33067 5.784 7.776C6.15733 7.21067 6.67467 6.768 7.336 6.448C8.008 6.11733 8.86133 5.952 9.896 5.952C11.7413 5.952 13.144 6.54933 14.104 7.744C15.064 8.928 15.544 10.6827 15.544 13.008V15.184C15.544 17.5307 15.0587 19.3173 14.088 20.544C13.1173 21.76 11.672 22.368 9.752 22.368ZM4.888 22H0.792V0.848H4.872V5.68L4.792 10.464L4.808 10.96V17.184L4.744 18.16L4.888 22ZM20.0133 6.304H24.1093V15.744C24.1093 16.3947 24.1946 16.9653 24.3653 17.456C24.5466 17.936 24.8399 18.3093 25.2453 18.576C25.6613 18.832 26.2159 18.96 26.9093 18.96C27.5386 18.96 28.0826 18.848 28.5413 18.624C28.9999 18.4 29.3786 18.1013 29.6773 17.728C29.9759 17.344 30.1946 16.9173 30.3333 16.448L30.9733 18.672H30.2053C30.0346 19.3547 29.7466 19.9787 29.3413 20.544C28.9466 21.0987 28.4026 21.5413 27.7093 21.872C27.0266 22.2027 26.1679 22.368 25.1333 22.368C23.9386 22.368 22.9626 22.1387 22.2053 21.68C21.4586 21.2213 20.9039 20.544 20.5413 19.648C20.1893 18.752 20.0133 17.648 20.0133 16.336V6.304ZM30.2373 6.304H34.3333V22H30.2533L30.3973 18.192L30.2373 17.856V6.304ZM44.6113 22.368C42.7659 22.368 41.3633 21.7707 40.4033 20.576C39.4433 19.3813 38.9633 17.6213 38.9633 15.296V13.136C38.9633 10.7787 39.4486 8.992 40.4193 7.776C41.3899 6.56 42.8353 5.952 44.7553 5.952C45.6939 5.952 46.4833 6.10133 47.1233 6.4C47.7739 6.69867 48.2966 7.12533 48.6913 7.68C49.0966 8.23467 49.3793 8.88533 49.5393 9.632H50.7393L49.6993 12.672C49.6779 11.936 49.5233 11.3173 49.2353 10.816C48.9579 10.304 48.5686 9.91467 48.0673 9.648C47.5659 9.38133 46.9739 9.248 46.2913 9.248C45.2566 9.248 44.4619 9.54667 43.9073 10.144C43.3633 10.7413 43.0913 11.632 43.0913 12.816V15.408C43.0913 16.5813 43.3633 17.4667 43.9073 18.064C44.4619 18.6613 45.2673 18.96 46.3233 18.96C46.9206 18.96 47.4539 18.848 47.9233 18.624C48.3926 18.4 48.7819 18.096 49.0913 17.712C49.4113 17.3173 49.6406 16.8747 49.7793 16.384L50.7553 18.672H49.6033C49.4326 19.3547 49.1553 19.9787 48.7713 20.544C48.3873 21.0987 47.8593 21.5413 47.1873 21.872C46.5153 22.2027 45.6566 22.368 44.6113 22.368ZM53.7313 22H49.6353L49.7793 18.16L49.6993 17.248V10.832L49.7153 10.176L49.6353 5.68V0.848H53.7313V22ZM65.5605 17.184C63.1818 17.184 61.3792 16.7147 60.1525 15.776C58.9258 14.8267 58.3125 13.4987 58.3125 11.792V11.552C58.3125 10.4213 58.5578 9.46133 59.0485 8.672C59.5392 7.872 60.3072 7.248 61.3525 6.8C62.3978 6.352 63.7525 6.096 65.4165 6.032L73.6885 5.696V8.704L69.4325 8.544V8.72C70.1045 8.85867 70.6592 9.08267 71.0965 9.392C71.5445 9.69067 71.8805 10.08 72.1045 10.56C72.3285 11.0293 72.4405 11.6 72.4405 12.272V12.416C72.4405 13.9627 71.8698 15.1467 70.7285 15.968C69.5872 16.7787 67.8645 17.184 65.5605 17.184ZM65.3685 24.992H65.8165C66.6485 24.992 67.3365 24.9333 67.8805 24.816C68.4245 24.7093 68.8298 24.5387 69.0965 24.304C69.3738 24.08 69.5125 23.7867 69.5125 23.424V23.376C69.5125 22.928 69.3365 22.5973 68.9845 22.384C68.6432 22.1813 68.0885 22.0427 67.3205 21.968L62.7285 21.52L63.6725 21.472C63.2778 21.5467 62.9258 21.6587 62.6165 21.808C62.3178 21.9467 62.0832 22.1333 61.9125 22.368C61.7418 22.6027 61.6565 22.8907 61.6565 23.232V23.264C61.6565 23.6587 61.7952 23.984 62.0725 24.24C62.3498 24.5067 62.7658 24.6987 63.3205 24.816C63.8752 24.9333 64.5578 24.992 65.3685 24.992ZM65.7205 28.08H65.1445C63.6298 28.08 62.3338 27.952 61.2565 27.696C60.1792 27.4507 59.3525 27.056 58.7765 26.512C58.2112 25.968 57.9285 25.248 57.9285 24.352V24.288C57.9285 23.68 58.0618 23.168 58.3285 22.752C58.5952 22.336 58.9738 22.0053 59.4645 21.76C59.9552 21.5147 60.5205 21.36 61.1605 21.296V21.136C60.3498 20.976 59.7365 20.7147 59.3205 20.352C58.9152 19.9787 58.7125 19.472 58.7125 18.832V18.816C58.7125 18.368 58.8138 17.9893 59.0165 17.68C59.2192 17.3707 59.5178 17.1253 59.9125 16.944C60.3178 16.7627 60.8138 16.656 61.4005 16.624V16.16L64.8725 17.024L63.7525 16.992C63.2618 17.0027 62.9205 17.072 62.7285 17.2C62.5365 17.3173 62.4405 17.488 62.4405 17.712V17.728C62.4405 18.0053 62.5898 18.208 62.8885 18.336C63.1872 18.4533 63.6832 18.5547 64.3765 18.64L68.1365 19.056C69.8965 19.2587 71.1925 19.6907 72.0245 20.352C72.8672 21.0133 73.2885 22.032 73.2885 23.408V23.488C73.2885 24.544 72.9898 25.408 72.3925 26.08C71.7952 26.7627 70.9312 27.264 69.8005 27.584C68.6805 27.9147 67.3205 28.08 65.7205 28.08ZM65.4485 14.336C66.1632 14.336 66.7552 14.2347 67.2245 14.032C67.7045 13.8293 68.0618 13.5307 68.2965 13.136C68.5418 12.7413 68.6645 12.2613 68.6645 11.696V11.52C68.6645 10.9547 68.5472 10.48 68.3125 10.096C68.0778 9.70133 67.7258 9.408 67.2565 9.216C66.7872 9.01333 66.1952 8.912 65.4805 8.912H65.4325C64.6752 8.912 64.0565 9.01867 63.5765 9.232C63.0965 9.43467 62.7445 9.73333 62.5205 10.128C62.2965 10.512 62.1845 10.976 62.1845 11.52V11.696C62.1845 12.2613 62.3018 12.7413 62.5365 13.136C62.7818 13.5307 63.1445 13.8293 63.6245 14.032C64.1152 14.2347 64.7232 14.336 65.4485 14.336ZM84.4743 22.384C81.7863 22.384 79.7863 21.7653 78.4743 20.528C77.1623 19.2907 76.5063 17.4987 76.5063 15.152V13.104C76.5063 10.7787 77.1196 8.992 78.3463 7.744C79.5729 6.496 81.3543 5.872 83.6903 5.872C85.2689 5.872 86.5863 6.14933 87.6423 6.704C88.6983 7.25867 89.4876 8.048 90.0103 9.072C90.5436 10.0853 90.8103 11.3013 90.8103 12.72V13.28C90.8103 13.664 90.7889 14.0587 90.7463 14.464C90.7143 14.8587 90.6663 15.232 90.6023 15.584H86.8903C86.9223 14.9973 86.9383 14.4427 86.9383 13.92C86.9489 13.3867 86.9543 12.9067 86.9543 12.48C86.9543 11.744 86.8369 11.12 86.6023 10.608C86.3676 10.0853 86.0103 9.69067 85.5303 9.424C85.0503 9.15733 84.4369 9.024 83.6903 9.024C82.5916 9.024 81.7809 9.328 81.2583 9.936C80.7356 10.544 80.4743 11.408 80.4743 12.528V13.984L80.4903 14.448V15.68C80.4903 16.1707 80.5649 16.624 80.7143 17.04C80.8743 17.456 81.1356 17.8187 81.4983 18.128C81.8609 18.4267 82.3409 18.6613 82.9383 18.832C83.5463 19.0027 84.3036 19.088 85.2103 19.088C86.1916 19.088 87.1249 18.9813 88.0103 18.768C88.9063 18.544 89.7543 18.2453 90.5543 17.872L90.2023 21.104C89.4876 21.4987 88.6449 21.808 87.6743 22.032C86.7143 22.2667 85.6476 22.384 84.4743 22.384ZM89.7703 15.584H78.6823V12.864H89.7703V15.584ZM101.466 22.336C100.132 22.336 99.0658 22.1387 98.2658 21.744C97.4764 21.3387 96.9058 20.7307 96.5538 19.92C96.2018 19.1093 96.0258 18.112 96.0258 16.928V7.776H100.09V16.32C100.09 17.1733 100.282 17.8027 100.666 18.208C101.06 18.6027 101.748 18.8 102.73 18.8C103.306 18.8 103.86 18.7413 104.394 18.624C104.927 18.496 105.418 18.3307 105.866 18.128L105.514 21.552C104.98 21.7973 104.367 21.9893 103.674 22.128C102.991 22.2667 102.255 22.336 101.466 22.336ZM105.37 9.664H93.7538V6.432H105.722L105.37 9.664ZM99.9778 6.736H96.0738L96.0578 2.576L100.138 2.16L99.9778 6.736ZM118.789 22.368C117.851 22.368 117.056 22.2187 116.405 21.92C115.755 21.6107 115.227 21.1787 114.821 20.624C114.427 20.0693 114.144 19.4187 113.973 18.672H112.805L113.845 15.536C113.867 16.2827 114.016 16.912 114.293 17.424C114.581 17.936 114.976 18.32 115.477 18.576C115.989 18.832 116.587 18.96 117.269 18.96C118.304 18.96 119.093 18.6613 119.637 18.064C120.181 17.456 120.453 16.56 120.453 15.376V12.8C120.453 11.6267 120.187 10.7413 119.653 10.144C119.12 9.54667 118.331 9.248 117.285 9.248C116.688 9.248 116.149 9.36533 115.669 9.6C115.189 9.824 114.789 10.128 114.469 10.512C114.149 10.896 113.92 11.3387 113.781 11.84L112.821 9.632H113.957C114.128 8.94933 114.4 8.33067 114.773 7.776C115.157 7.21067 115.685 6.768 116.357 6.448C117.04 6.11733 117.899 5.952 118.933 5.952C120.779 5.952 122.181 6.54933 123.141 7.744C124.101 8.928 124.581 10.6827 124.581 13.008V15.184C124.581 17.5307 124.096 19.3173 123.125 20.544C122.165 21.76 120.72 22.368 118.789 22.368ZM113.909 27.504H109.829V6.304H113.925L113.765 10.288L113.845 11.008V17.296L113.797 18.032L113.909 22.336V27.504ZM133.355 22H129.243V0.848H133.355V22ZM151.697 22H147.649L147.793 18.16L147.681 17.808V12.896L147.665 12.192C147.665 11.168 147.382 10.416 146.817 9.936C146.262 9.456 145.35 9.216 144.081 9.216C143.003 9.216 141.99 9.36 141.041 9.648C140.102 9.92533 139.233 10.2507 138.433 10.624L138.785 7.36C139.254 7.11467 139.787 6.88533 140.385 6.672C140.993 6.448 141.67 6.26667 142.417 6.128C143.163 5.98933 143.969 5.92 144.833 5.92C146.113 5.92 147.195 6.07467 148.081 6.384C148.966 6.68267 149.67 7.11467 150.193 7.68C150.726 8.24533 151.11 8.92267 151.345 9.712C151.579 10.4907 151.697 11.3547 151.697 12.304V22ZM142.513 22.368C140.955 22.368 139.766 21.9787 138.945 21.2C138.134 20.4213 137.729 19.312 137.729 17.872V17.424C137.729 15.8987 138.198 14.7733 139.137 14.048C140.075 13.312 141.563 12.8053 143.601 12.528L148.049 11.92L148.289 14.56L144.193 15.152C143.297 15.2693 142.657 15.4827 142.273 15.792C141.899 16.1013 141.713 16.5547 141.713 17.152V17.312C141.713 17.8987 141.894 18.3573 142.257 18.688C142.63 19.008 143.211 19.168 144.001 19.168C144.705 19.168 145.307 19.056 145.809 18.832C146.31 18.608 146.721 18.3147 147.041 17.952C147.371 17.5787 147.606 17.1627 147.745 16.704L148.321 18.736H147.617C147.446 19.408 147.169 20.0213 146.785 20.576C146.411 21.12 145.883 21.5573 145.201 21.888C144.518 22.208 143.622 22.368 142.513 22.368ZM170.981 22H166.885V12.576C166.885 11.9147 166.794 11.344 166.613 10.864C166.442 10.384 166.154 10.0107 165.749 9.744C165.343 9.47733 164.789 9.344 164.085 9.344C163.466 9.344 162.922 9.456 162.453 9.68C161.994 9.904 161.615 10.208 161.317 10.592C161.029 10.9653 160.81 11.392 160.661 11.872L160.021 9.632H160.789C160.959 8.93867 161.242 8.31467 161.637 7.76C162.042 7.20533 162.586 6.768 163.269 6.448C163.962 6.11733 164.826 5.952 165.861 5.952C167.066 5.952 168.042 6.18133 168.789 6.64C169.535 7.088 170.085 7.76 170.437 8.656C170.799 9.552 170.981 10.6613 170.981 11.984V22ZM160.757 22H156.661V6.304H160.757L160.597 10.128L160.757 10.464V22Z" fill="#1A203C"/>
</svg>
