<svg width="128" height="128" viewBox="0 0 128 128" fill="none" xmlns="http://www.w3.org/2000/svg">
<rect width="128" height="128" rx="16" fill="#4C63D9"/>
<path d="M37.3403 104.111C45.0033 109.098 54.1801 112 64.0431 112C75.9836 112 86.9183 107.747 95.3789 100.691C85.7953 101.989 77.9324 100.464 71.3303 96.9274C62.63 92.267 56.6361 84.3757 51.7794 76.3824C49.7142 72.9835 47.7996 69.4687 45.9701 66.1104C45.6416 65.5073 45.3158 64.9092 44.9924 64.3178C42.843 60.3872 40.7942 56.741 38.6284 53.5648C34.2484 47.1415 29.8959 43.398 24.3236 42.8949C22.5496 42.7348 20.5306 43.9128 19.4779 46.1546C18.1806 48.9173 17.4263 51.4894 16.8676 55.2371C28.4489 64.1904 37.4839 71.5165 42.6741 78.0327C45.4156 81.4746 47.3491 85.0043 47.8363 88.714C48.3419 92.5637 47.2346 96.1612 44.7649 99.5206C43.9051 100.69 42.7835 101.734 41.4313 102.495C40.0806 103.255 38.7111 103.787 37.3403 104.111Z" fill="white"/>
<path d="M36.9524 24.1991C36.9186 24.2031 36.8848 24.2071 36.8509 24.2112C44.6113 19.0274 53.9692 16 64.0431 16C74.3789 16 83.9611 19.1869 91.8373 24.62C91.5425 24.6296 91.2452 24.6449 90.9453 24.6658C87.1471 24.9304 83.478 27.0953 81.7276 30.7171C79.672 34.9706 79.8007 39.1358 81.3924 43.0762C82.9166 46.8497 85.7564 50.369 89.0235 53.7122C92.0598 56.8194 95.7049 60.0078 99.4407 63.2756L99.4598 63.2923C99.7613 63.556 100.063 63.8202 100.366 64.085C103.936 67.2107 107.6 70.4505 111.096 73.9234C110.48 75.579 109.996 77.1502 109.561 78.5668C109.471 78.8596 109.383 79.1458 109.296 79.4247C108.588 81.703 107.964 83.5022 107.024 85.1089C106.47 86.0563 105.427 86.7387 104.21 86.8825C97.9433 87.6228 92.7228 83.9774 87.3412 76.6501C83.6674 71.648 80.3852 65.6028 76.9275 59.2346L76.927 59.2336C75.2825 56.2048 73.5983 53.1028 71.8134 50.0053C66.4954 40.7764 60.2583 31.5805 51.764 27.0095C47.3989 24.6605 42.4827 23.5507 36.9524 24.1991Z" fill="white"/>
<path d="M23.7367 90.8259C22.5071 89.027 21.3976 87.1415 20.4197 85.1804C17.5284 79.054 15.7778 71.3167 16.0228 63.3058C25.9456 71.0606 33.0892 77.0893 37.2176 82.2725C39.5826 85.2417 40.6915 87.6175 40.9514 89.5961C41.1929 91.4348 40.752 93.3085 39.147 95.4917C38.8117 95.9479 38.411 96.3026 37.9956 96.5363C35.415 97.9879 32.8888 97.9564 30.3434 96.7459C28.1266 95.6917 25.8392 93.6959 23.7367 90.8259Z" fill="white"/>
<path d="M24.7108 36.0469C24.7921 36.0524 24.8737 36.0589 24.9555 36.0663C33.7465 36.8598 39.6837 42.8371 44.3868 49.7343C46.7626 53.2185 48.9538 57.1326 51.101 61.0592C51.4338 61.6679 51.7657 62.2769 52.0973 62.8856L52.0999 62.8903C53.9316 66.2522 55.7583 69.605 57.7324 72.854C62.4125 80.5567 67.6159 87.1371 74.6401 90.8997C80.4495 94.0116 87.875 95.3853 97.9805 93.2879C91.2949 91.6535 86.0506 86.5709 81.7215 80.6765C77.7673 75.2926 74.1007 68.5451 70.5168 61.9498C68.9274 59.0249 67.3543 56.1299 65.7796 53.3971C60.4342 44.1206 55.0219 36.5715 48.4425 33.031C45.2708 31.3242 41.7942 30.5367 37.7709 31.0085C34.0825 31.4409 29.7735 32.9525 24.7108 36.0469Z" fill="white"/>
<path d="M112 65.2409C109.623 63.0386 107.247 60.9468 104.971 58.9537C104.678 58.6973 104.387 58.4428 104.099 58.1902L104.098 58.1899C100.3 54.8665 96.8565 51.854 94.0188 48.9501C90.9458 45.8054 88.8596 43.0576 87.8408 40.5352C86.8893 38.1798 86.8577 36.0204 87.9931 33.6709C88.5588 32.5005 89.8691 31.6149 91.4339 31.5059C98.536 31.011 103.96 35.1609 107.592 42.9528C110.412 49.0011 111.915 56.8788 112 65.2409Z" fill="white"/>
</svg>
