<svg width="32" height="32" viewBox="0 0 32 32" fill="none" xmlns="http://www.w3.org/2000/svg">
<path d="M7.11342 29.3705C9.66776 31.0327 12.7267 32 16.0144 32C19.9945 32 23.6394 30.5823 26.4596 28.2302C23.2651 28.6631 20.6441 28.1546 18.4434 26.9758C15.5433 25.4223 13.5454 22.7919 11.9265 20.1275C11.2381 18.9945 10.5999 17.8229 9.99004 16.7035C9.88053 16.5024 9.77193 16.3031 9.66413 16.1059C8.94765 14.7957 8.26473 13.5803 7.54281 12.5216C6.08281 10.3805 4.63196 9.13266 2.77452 8.96498C2.1832 8.9116 1.51019 9.30426 1.1593 10.0515C0.726879 10.9724 0.475442 11.8298 0.289186 13.079C4.14964 16.0635 7.16129 18.5055 8.89136 20.6776C9.80521 21.8249 10.4497 23.0014 10.6121 24.238C10.7806 25.5212 10.4115 26.7204 9.5883 27.8402C9.30169 28.2301 8.92783 28.5781 8.47711 28.8316C8.02685 29.0849 7.57035 29.2625 7.11342 29.3705Z" fill="#4C63D9"/>
<path d="M6.98413 2.73305C6.97286 2.73437 6.96158 2.73571 6.9503 2.73708C9.53708 1.00912 12.6564 0 16.0144 0C19.4596 0 22.6537 1.06228 25.2791 2.87332C25.1808 2.87655 25.0817 2.88162 24.9818 2.88859C23.7157 2.97681 22.4927 3.69843 21.9092 4.9057C21.224 6.32354 21.2669 7.71194 21.7975 9.0254C22.3055 10.2832 23.2521 11.4563 24.3412 12.5707C25.3533 13.6065 26.5683 14.6693 27.8136 15.7585L27.8199 15.7641C27.9204 15.852 28.0211 15.9401 28.1219 16.0283C29.3119 17.0702 30.5333 18.1502 31.6987 19.3078C31.4932 19.8597 31.3322 20.3834 31.1869 20.8556C31.1569 20.9532 31.1276 21.0486 31.0987 21.1416C30.8625 21.901 30.6547 22.5007 30.3415 23.0363C30.1567 23.3521 29.809 23.5796 29.4032 23.6275C27.3144 23.8743 25.5743 22.6591 23.7804 20.2167C22.5558 18.5493 21.4617 16.5343 20.3092 14.4115L20.309 14.4112C19.7608 13.4016 19.1994 12.3676 18.6045 11.3351C16.8318 8.25879 14.7528 5.19349 11.9213 3.66984C10.4663 2.88684 8.82756 2.5169 6.98413 2.73305Z" fill="#4C63D9"/>
<path d="M2.57892 24.942C2.16903 24.3424 1.79921 23.7138 1.47325 23.0601C0.509458 21.018 -0.0740752 18.4389 0.00758595 15.7686C3.3152 18.3535 5.6964 20.3631 7.07253 22.0908C7.86088 23.0806 8.23051 23.8725 8.31713 24.532C8.39762 25.1449 8.25066 25.7695 7.71567 26.4972C7.60389 26.6493 7.47035 26.7675 7.33186 26.8454C6.47167 27.3293 5.62958 27.3188 4.78112 26.9153C4.0422 26.5639 3.27973 25.8986 2.57892 24.942Z" fill="#4C63D9"/>
<path d="M2.90359 6.68229C2.9307 6.68414 2.95789 6.68629 2.98516 6.68876C5.91549 6.95328 7.89456 8.94569 9.46228 11.2448C10.2542 12.4062 10.9846 13.7109 11.7003 15.0197C11.8113 15.2226 11.9219 15.4256 12.0324 15.6285L12.0333 15.6301C12.6439 16.7507 13.2528 17.8683 13.9108 18.9513C15.4708 21.5189 17.2053 23.7124 19.5467 24.9666C21.4832 26.0039 23.9583 26.4618 27.3268 25.7626C25.0983 25.2178 23.3502 23.5236 21.9072 21.5588C20.5891 19.7642 19.3669 17.515 18.1723 15.3166C17.6425 14.3416 17.1181 13.3766 16.5932 12.4657C14.8114 9.37354 13.0073 6.85716 10.8142 5.67699C9.75695 5.10808 8.59807 4.84557 7.25695 5.00282C6.0275 5.14698 4.59118 5.65083 2.90359 6.68229Z" fill="#4C63D9"/>
<path d="M32 16.4136C31.2077 15.6795 30.4158 14.9823 29.657 14.3179C29.5594 14.2324 29.4625 14.1476 29.3662 14.0634L29.3661 14.0633C28.0999 12.9555 26.9522 11.9513 26.0063 10.9834C24.9819 9.93514 24.2865 9.01921 23.9469 8.17841C23.6298 7.39326 23.6192 6.67347 23.9977 5.89032C24.1863 5.50015 24.623 5.20498 25.1446 5.16864C27.512 5.00368 29.32 6.38696 30.5308 8.98427C31.4706 11.0004 31.9717 13.6263 32 16.4136Z" fill="#4C63D9"/>
</svg>
