<svg width="30" height="30" viewBox="0 0 30 30" fill="none" xmlns="http://www.w3.org/2000/svg">
  <path d="M1.16166 20.7818C1.97858 14.1009 5.38376 11.958 8.43279 10.0592C11.5462 8.11954 14.2391 6.42064 13.9151 0.0375366C12.4949 0.139033 11.0966 0.443498 9.7628 0.941648C9.89828 6.00749 7.49849 7.50987 5.1698 8.96061C2.71032 10.4925 0.386998 11.9399 0.241455 17.6516C0.43596 18.7388 0.745155 19.7885 1.16166 20.7818Z" fill="#673DE6"/>
  <path d="M4.4602 7.82177C6.63061 6.46896 8.38585 5.36229 8.42542 1.51781C4.47496 3.45413 1.49703 7.07662 0.431274 11.4416C1.5252 9.65146 3.04569 8.70241 4.4602 7.82177ZM4.85659 26.0388C5.38511 18.9186 8.50926 16.4336 11.5388 14.0278C14.83 11.4147 17.9401 8.9385 17.765 0.251515C16.9365 0.0974291 16.0965 0.0132944 15.2539 0C15.6013 7.15039 12.3249 9.21483 9.14173 11.1974C5.91698 13.2062 2.58894 15.2914 2.33273 23.0159C3.03847 24.1294 3.88697 25.1457 4.85659 26.0388ZM20.9207 18.2103C23.9268 15.7978 26.7625 13.5013 26.6109 5.49576C25.8005 4.50933 24.8684 3.62951 23.8369 2.87733C23.7946 11.6233 20.3948 14.3571 17.0997 17.0011C13.9983 19.49 11.0707 21.8449 10.8561 29.4192C12.0928 29.7746 13.3933 29.9765 14.7374 30.0007C15.0909 22.9093 18.0494 20.5155 20.9207 18.2103ZM25.959 21.3392C23.806 22.6511 21.9388 23.8013 21.7215 28.4145C25.8497 26.34 28.8927 22.4177 29.7592 17.7368C28.7921 19.6108 27.3252 20.5068 25.959 21.3392Z" fill="#673DE6"/>
  <path d="M25.2615 20.1943C27.5674 18.7885 29.7465 17.4619 29.4809 11.2934L29.55 11.2907C29.1987 9.917 28.6531 8.60053 27.9295 7.38115C27.6123 14.5376 24.6464 16.9414 21.7617 19.2567C19.0165 21.4579 16.4269 23.5552 16.0842 29.9631C17.5475 29.8596 18.9876 29.541 20.3579 29.0174C20.4398 23.1327 23.0005 21.5719 25.2615 20.1943ZM16.2613 15.9548C19.5578 13.3102 22.6726 10.8051 22.4901 2.00007C21.4279 1.38618 20.2942 0.90546 19.1145 0.568787C19.2104 9.65014 15.7361 12.4081 12.3732 15.0782C9.31075 17.5095 6.42068 19.8194 6.14502 27.0986C7.19029 27.8664 8.33087 28.4952 9.53812 28.9692C9.86945 21.1051 13.1143 18.48 16.2613 15.9548Z" fill="#673DE6"/>
</svg>
