<svg width="218" height="33" viewBox="0 0 218 33" fill="none" xmlns="http://www.w3.org/2000/svg">
<path d="M7.11342 29.3705C9.66776 31.0327 12.7267 32 16.0144 32C19.9945 32 23.6394 30.5823 26.4596 28.2302C23.2651 28.6631 20.6441 28.1546 18.4434 26.9758C15.5433 25.4223 13.5454 22.7919 11.9265 20.1275C11.2381 18.9945 10.5999 17.8229 9.99004 16.7035C9.88053 16.5024 9.77193 16.3031 9.66413 16.1059C8.94765 14.7957 8.26473 13.5803 7.54281 12.5216C6.08281 10.3805 4.63196 9.13266 2.77452 8.96498C2.1832 8.9116 1.51019 9.30426 1.1593 10.0515C0.726879 10.9724 0.475442 11.8298 0.289186 13.079C4.14964 16.0635 7.16129 18.5055 8.89136 20.6776C9.80521 21.8249 10.4497 23.0014 10.6121 24.238C10.7806 25.5212 10.4115 26.7204 9.5883 27.8402C9.30169 28.2301 8.92783 28.5781 8.4771 28.8316C8.02685 29.0849 7.57035 29.2625 7.11342 29.3705Z" fill="#E6E8F0"/>
<path d="M6.98413 2.73305C6.97286 2.73437 6.96158 2.73571 6.9503 2.73708C9.53708 1.00912 12.6564 0 16.0144 0C19.4596 0 22.6537 1.06228 25.2791 2.87332C25.1808 2.87655 25.0817 2.88162 24.9818 2.88859C23.7157 2.97681 22.4927 3.69843 21.9092 4.9057C21.224 6.32354 21.2669 7.71194 21.7975 9.0254C22.3055 10.2832 23.2521 11.4563 24.3412 12.5707C25.3533 13.6065 26.5683 14.6693 27.8136 15.7585L27.8199 15.7641C27.9204 15.852 28.0211 15.9401 28.1219 16.0283C29.3119 17.0702 30.5333 18.1502 31.6987 19.3078C31.4932 19.8597 31.3322 20.3834 31.1869 20.8556C31.1569 20.9532 31.1276 21.0486 31.0987 21.1416C30.8625 21.901 30.6547 22.5007 30.3415 23.0363C30.1567 23.3521 29.809 23.5796 29.4032 23.6275C27.3144 23.8743 25.5743 22.6591 23.7804 20.2167C22.5558 18.5493 21.4617 16.5343 20.3092 14.4115L20.309 14.4112C19.7608 13.4016 19.1994 12.3676 18.6045 11.3351C16.8318 8.25879 14.7528 5.19349 11.9213 3.66984C10.4663 2.88684 8.82756 2.5169 6.98413 2.73305Z" fill="#E6E8F0"/>
<path d="M2.57892 24.942C2.16903 24.3423 1.79921 23.7138 1.47325 23.0601C0.509458 21.018 -0.0740752 18.4389 0.00758595 15.7686C3.3152 18.3535 5.6964 20.3631 7.07253 22.0908C7.86088 23.0806 8.23051 23.8725 8.31713 24.532C8.39762 25.1449 8.25066 25.7695 7.71567 26.4972C7.60389 26.6493 7.47035 26.7675 7.33186 26.8454C6.47167 27.3293 5.62958 27.3188 4.78112 26.9153C4.0422 26.5639 3.27973 25.8986 2.57892 24.942Z" fill="#E6E8F0"/>
<path d="M2.90359 6.68229C2.9307 6.68414 2.95789 6.68629 2.98516 6.68876C5.91549 6.95328 7.89456 8.94569 9.46228 11.2448C10.2542 12.4062 10.9846 13.7109 11.7003 15.0197C11.8113 15.2226 11.9219 15.4256 12.0324 15.6285L12.0333 15.6301C12.6439 16.7507 13.2528 17.8683 13.9108 18.9513C15.4708 21.5189 17.2053 23.7124 19.5467 24.9666C21.4832 26.0039 23.9583 26.4618 27.3268 25.7626C25.0983 25.2178 23.3502 23.5236 21.9072 21.5588C20.5891 19.7642 19.3669 17.515 18.1723 15.3166C17.6425 14.3416 17.1181 13.3766 16.5932 12.4657C14.8114 9.37354 13.0073 6.85716 10.8142 5.67699C9.75695 5.10808 8.59807 4.84557 7.25695 5.00282C6.0275 5.14698 4.59118 5.65083 2.90359 6.68229Z" fill="#E6E8F0"/>
<path d="M32 16.4136C31.2077 15.6795 30.4158 14.9823 29.657 14.3179C29.5594 14.2324 29.4625 14.1476 29.3662 14.0634L29.3661 14.0633C28.0999 12.9555 26.9522 11.9513 26.0063 10.9834C24.9819 9.93514 24.2865 9.01921 23.9469 8.17841C23.6298 7.39326 23.6192 6.67347 23.9977 5.89032C24.1863 5.50015 24.623 5.20498 25.1446 5.16864C27.512 5.00368 29.32 6.38696 30.5308 8.98427C31.4706 11.0004 31.9717 13.6263 32 16.4136Z" fill="#E6E8F0"/>
<path d="M54.752 26.368C53.8133 26.368 53.0133 26.2187 52.352 25.92C51.7013 25.6107 51.1733 25.1787 50.768 24.624C50.3733 24.0693 50.0907 23.4187 49.92 22.672H48.752L49.808 19.536C49.84 20.2827 50 20.912 50.288 21.424C50.576 21.936 50.976 22.32 51.488 22.576C52 22.832 52.592 22.96 53.264 22.96C54.2987 22.96 55.0827 22.6613 55.616 22.064C56.1493 21.456 56.416 20.5493 56.416 19.344V16.8C56.416 15.6267 56.1493 14.7413 55.616 14.144C55.0827 13.5467 54.2987 13.248 53.264 13.248C52.656 13.248 52.112 13.3653 51.632 13.6C51.152 13.824 50.752 14.128 50.432 14.512C50.112 14.896 49.8827 15.3387 49.744 15.84L48.816 13.632H49.968C50.1387 12.9493 50.4107 12.3307 50.784 11.776C51.1573 11.2107 51.6747 10.768 52.336 10.448C53.008 10.1173 53.8613 9.952 54.896 9.952C56.7413 9.952 58.144 10.5493 59.104 11.744C60.064 12.928 60.544 14.6827 60.544 17.008V19.184C60.544 21.5307 60.0587 23.3173 59.088 24.544C58.1173 25.76 56.672 26.368 54.752 26.368ZM49.888 26H45.792V4.848H49.872V9.68L49.792 14.464L49.808 14.96V21.184L49.744 22.16L49.888 26ZM65.0133 10.304H69.1093V19.744C69.1093 20.3947 69.1946 20.9653 69.3653 21.456C69.5466 21.936 69.8399 22.3093 70.2453 22.576C70.6613 22.832 71.2159 22.96 71.9093 22.96C72.5386 22.96 73.0826 22.848 73.5413 22.624C73.9999 22.4 74.3786 22.1013 74.6773 21.728C74.9759 21.344 75.1946 20.9173 75.3333 20.448L75.9733 22.672H75.2053C75.0346 23.3547 74.7466 23.9787 74.3413 24.544C73.9466 25.0987 73.4026 25.5413 72.7093 25.872C72.0266 26.2027 71.1679 26.368 70.1333 26.368C68.9386 26.368 67.9626 26.1387 67.2053 25.68C66.4586 25.2213 65.9039 24.544 65.5413 23.648C65.1893 22.752 65.0133 21.648 65.0133 20.336V10.304ZM75.2373 10.304H79.3333V26H75.2533L75.3973 22.192L75.2373 21.856V10.304ZM89.6113 26.368C87.7659 26.368 86.3633 25.7707 85.4033 24.576C84.4433 23.3813 83.9633 21.6213 83.9633 19.296V17.136C83.9633 14.7787 84.4486 12.992 85.4193 11.776C86.3899 10.56 87.8353 9.952 89.7553 9.952C90.6939 9.952 91.4833 10.1013 92.1233 10.4C92.7739 10.6987 93.2966 11.1253 93.6913 11.68C94.0966 12.2347 94.3793 12.8853 94.5393 13.632H95.7393L94.6993 16.672C94.6779 15.936 94.5233 15.3173 94.2353 14.816C93.9579 14.304 93.5686 13.9147 93.0673 13.648C92.5659 13.3813 91.9739 13.248 91.2913 13.248C90.2566 13.248 89.4619 13.5467 88.9073 14.144C88.3633 14.7413 88.0913 15.632 88.0913 16.816V19.408C88.0913 20.5813 88.3633 21.4667 88.9073 22.064C89.4619 22.6613 90.2673 22.96 91.3233 22.96C91.9206 22.96 92.4539 22.848 92.9233 22.624C93.3926 22.4 93.7819 22.096 94.0913 21.712C94.4113 21.3173 94.6406 20.8747 94.7793 20.384L95.7553 22.672H94.6033C94.4326 23.3547 94.1553 23.9787 93.7713 24.544C93.3873 25.0987 92.8593 25.5413 92.1873 25.872C91.5153 26.2027 90.6566 26.368 89.6113 26.368ZM98.7313 26H94.6353L94.7793 22.16L94.6993 21.248V14.832L94.7153 14.176L94.6353 9.68V4.848H98.7313V26ZM110.56 21.184C108.182 21.184 106.379 20.7147 105.152 19.776C103.926 18.8267 103.312 17.4987 103.312 15.792V15.552C103.312 14.4213 103.558 13.4613 104.048 12.672C104.539 11.872 105.307 11.248 106.352 10.8C107.398 10.352 108.752 10.096 110.417 10.032L118.688 9.696V12.704L114.432 12.544V12.72C115.105 12.8587 115.659 13.0827 116.096 13.392C116.545 13.6907 116.881 14.08 117.104 14.56C117.329 15.0293 117.441 15.6 117.441 16.272V16.416C117.441 17.9627 116.87 19.1467 115.728 19.968C114.587 20.7787 112.864 21.184 110.56 21.184ZM110.368 28.992H110.816C111.648 28.992 112.336 28.9333 112.88 28.816C113.424 28.7093 113.83 28.5387 114.096 28.304C114.374 28.08 114.512 27.7867 114.512 27.424V27.376C114.512 26.928 114.336 26.5973 113.984 26.384C113.643 26.1813 113.088 26.0427 112.32 25.968L107.728 25.52L108.672 25.472C108.278 25.5467 107.926 25.6587 107.616 25.808C107.318 25.9467 107.083 26.1333 106.912 26.368C106.742 26.6027 106.656 26.8907 106.656 27.232V27.264C106.656 27.6587 106.795 27.984 107.072 28.24C107.35 28.5067 107.766 28.6987 108.32 28.816C108.875 28.9333 109.558 28.992 110.368 28.992ZM110.72 32.08H110.144C108.63 32.08 107.334 31.952 106.256 31.696C105.179 31.4507 104.352 31.056 103.776 30.512C103.211 29.968 102.928 29.248 102.928 28.352V28.288C102.928 27.68 103.062 27.168 103.328 26.752C103.595 26.336 103.974 26.0053 104.464 25.76C104.955 25.5147 105.52 25.36 106.16 25.296V25.136C105.35 24.976 104.736 24.7147 104.32 24.352C103.915 23.9787 103.712 23.472 103.712 22.832V22.816C103.712 22.368 103.814 21.9893 104.016 21.68C104.219 21.3707 104.518 21.1253 104.912 20.944C105.318 20.7627 105.814 20.656 106.4 20.624V20.16L109.872 21.024L108.752 20.992C108.262 21.0027 107.92 21.072 107.728 21.2C107.536 21.3173 107.44 21.488 107.44 21.712V21.728C107.44 22.0053 107.59 22.208 107.888 22.336C108.187 22.4533 108.683 22.5547 109.376 22.64L113.136 23.056C114.896 23.2587 116.192 23.6907 117.024 24.352C117.867 25.0133 118.288 26.032 118.288 27.408V27.488C118.288 28.544 117.99 29.408 117.392 30.08C116.795 30.7627 115.931 31.264 114.8 31.584C113.68 31.9147 112.32 32.08 110.72 32.08ZM110.448 18.336C111.163 18.336 111.755 18.2347 112.224 18.032C112.704 17.8293 113.062 17.5307 113.297 17.136C113.542 16.7413 113.665 16.2613 113.665 15.696V15.52C113.665 14.9547 113.547 14.48 113.312 14.096C113.078 13.7013 112.726 13.408 112.256 13.216C111.787 13.0133 111.195 12.912 110.48 12.912H110.432C109.675 12.912 109.056 13.0187 108.576 13.232C108.096 13.4347 107.744 13.7333 107.52 14.128C107.296 14.512 107.184 14.976 107.184 15.52V15.696C107.184 16.2613 107.302 16.7413 107.536 17.136C107.782 17.5307 108.144 17.8293 108.624 18.032C109.115 18.2347 109.723 18.336 110.448 18.336ZM129.474 26.384C126.786 26.384 124.786 25.7653 123.474 24.528C122.162 23.2907 121.506 21.4987 121.506 19.152V17.104C121.506 14.7787 122.12 12.992 123.346 11.744C124.573 10.496 126.354 9.872 128.69 9.872C130.269 9.872 131.586 10.1493 132.642 10.704C133.698 11.2587 134.488 12.048 135.01 13.072C135.544 14.0853 135.81 15.3013 135.81 16.72V17.28C135.81 17.664 135.789 18.0587 135.746 18.464C135.714 18.8587 135.666 19.232 135.602 19.584H131.89C131.922 18.9973 131.938 18.4427 131.938 17.92C131.949 17.3867 131.954 16.9067 131.954 16.48C131.954 15.744 131.837 15.12 131.602 14.608C131.368 14.0853 131.01 13.6907 130.53 13.424C130.05 13.1573 129.437 13.024 128.69 13.024C127.592 13.024 126.781 13.328 126.258 13.936C125.736 14.544 125.474 15.408 125.474 16.528V17.984L125.49 18.448V19.68C125.49 20.1707 125.565 20.624 125.714 21.04C125.874 21.456 126.136 21.8187 126.498 22.128C126.861 22.4267 127.341 22.6613 127.938 22.832C128.546 23.0027 129.304 23.088 130.21 23.088C131.192 23.088 132.125 22.9813 133.01 22.768C133.906 22.544 134.754 22.2453 135.554 21.872L135.202 25.104C134.488 25.4987 133.645 25.808 132.674 26.032C131.714 26.2667 130.648 26.384 129.474 26.384ZM134.77 19.584H123.682V16.864H134.77V19.584ZM146.466 26.336C145.132 26.336 144.066 26.1387 143.266 25.744C142.476 25.3387 141.906 24.7307 141.554 23.92C141.202 23.1093 141.026 22.112 141.026 20.928V11.776H145.09V20.32C145.09 21.1733 145.282 21.8027 145.666 22.208C146.06 22.6027 146.748 22.8 147.73 22.8C148.306 22.8 148.86 22.7413 149.394 22.624C149.927 22.496 150.418 22.3307 150.866 22.128L150.514 25.552C149.98 25.7973 149.367 25.9893 148.674 26.128C147.991 26.2667 147.255 26.336 146.466 26.336ZM150.37 13.664H138.754V10.432H150.722L150.37 13.664ZM144.978 10.736H141.074L141.058 6.576L145.138 6.16L144.978 10.736ZM163.789 26.368C162.851 26.368 162.056 26.2187 161.405 25.92C160.755 25.6107 160.227 25.1787 159.821 24.624C159.427 24.0693 159.144 23.4187 158.973 22.672H157.805L158.845 19.536C158.867 20.2827 159.016 20.912 159.293 21.424C159.581 21.936 159.976 22.32 160.477 22.576C160.989 22.832 161.587 22.96 162.269 22.96C163.304 22.96 164.093 22.6613 164.637 22.064C165.181 21.456 165.453 20.56 165.453 19.376V16.8C165.453 15.6267 165.187 14.7413 164.653 14.144C164.12 13.5467 163.331 13.248 162.285 13.248C161.688 13.248 161.149 13.3653 160.669 13.6C160.189 13.824 159.789 14.128 159.469 14.512C159.149 14.896 158.92 15.3387 158.781 15.84L157.821 13.632H158.957C159.128 12.9493 159.4 12.3307 159.773 11.776C160.157 11.2107 160.685 10.768 161.357 10.448C162.04 10.1173 162.899 9.952 163.933 9.952C165.779 9.952 167.181 10.5493 168.141 11.744C169.101 12.928 169.581 14.6827 169.581 17.008V19.184C169.581 21.5307 169.096 23.3173 168.125 24.544C167.165 25.76 165.72 26.368 163.789 26.368ZM158.909 31.504H154.829V10.304H158.925L158.765 14.288L158.845 15.008V21.296L158.797 22.032L158.909 26.336V31.504ZM178.355 26H174.243V4.848H178.355V26ZM196.697 26H192.649L192.793 22.16L192.681 21.808V16.896L192.665 16.192C192.665 15.168 192.382 14.416 191.817 13.936C191.262 13.456 190.35 13.216 189.081 13.216C188.003 13.216 186.99 13.36 186.041 13.648C185.102 13.9253 184.233 14.2507 183.433 14.624L183.785 11.36C184.254 11.1147 184.787 10.8853 185.385 10.672C185.993 10.448 186.67 10.2667 187.417 10.128C188.163 9.98933 188.969 9.92 189.833 9.92C191.113 9.92 192.195 10.0747 193.081 10.384C193.966 10.6827 194.67 11.1147 195.193 11.68C195.726 12.2453 196.11 12.9227 196.345 13.712C196.579 14.4907 196.697 15.3547 196.697 16.304V26ZM187.513 26.368C185.955 26.368 184.766 25.9787 183.945 25.2C183.134 24.4213 182.729 23.312 182.729 21.872V21.424C182.729 19.8987 183.198 18.7733 184.137 18.048C185.075 17.312 186.563 16.8053 188.601 16.528L193.049 15.92L193.289 18.56L189.193 19.152C188.297 19.2693 187.657 19.4827 187.273 19.792C186.899 20.1013 186.713 20.5547 186.713 21.152V21.312C186.713 21.8987 186.894 22.3573 187.257 22.688C187.63 23.008 188.211 23.168 189.001 23.168C189.705 23.168 190.307 23.056 190.809 22.832C191.31 22.608 191.721 22.3147 192.041 21.952C192.371 21.5787 192.606 21.1627 192.745 20.704L193.321 22.736H192.617C192.446 23.408 192.169 24.0213 191.785 24.576C191.411 25.12 190.883 25.5573 190.201 25.888C189.518 26.208 188.622 26.368 187.513 26.368ZM215.981 26H211.885V16.576C211.885 15.9147 211.794 15.344 211.613 14.864C211.442 14.384 211.154 14.0107 210.749 13.744C210.343 13.4773 209.789 13.344 209.085 13.344C208.466 13.344 207.922 13.456 207.453 13.68C206.994 13.904 206.615 14.208 206.317 14.592C206.029 14.9653 205.81 15.392 205.661 15.872L205.021 13.632H205.789C205.959 12.9387 206.242 12.3147 206.637 11.76C207.042 11.2053 207.586 10.768 208.269 10.448C208.962 10.1173 209.826 9.952 210.861 9.952C212.066 9.952 213.042 10.1813 213.789 10.64C214.535 11.088 215.085 11.76 215.437 12.656C215.799 13.552 215.981 14.6613 215.981 15.984V26ZM205.757 26H201.661V10.304H205.757L205.597 14.128L205.757 14.464V26Z" fill="#E6E8F0"/>
</svg>
